#!OML:ASF H:\ManfredETheater\Project 1\Capture day 1\Session 1\subject.ASF
:FULLY-SPECIFIED
:DEGREES
61
root -10.1064 15.7853 9.34717 -170.985 -2.1138 -186.612
lowerback 16.1796 0.72361 -2.01634
upperback 0.842108 0.299435 -1.09502
thorax -8.19376 0.11531 -0.0872589
lowerneck -11.8022 -11.0697 -10.6705
upperneck 3.2602 -14.1116 11.002
head 4.41788 -6.69511 3.8883
rclavicle -8.54774e-015 -7.95139e-016
rhumerus -47.7922 5.73643 -87.8677
rradius 96.7311
rwrist -9.15806
rhand -27.4554 12.7737
rfingers 7.12502
rthumb -0.859974 -17.2043
lclavicle -8.54774e-015 -7.95139e-016
lhumerus -62.5223 -7.58041 92.2226
lradius 101.629
lwrist 15.7683
lhand -16.6172 -12.3948
lfingers 7.12502
lthumb 9.60472 17.3663
rfemur -20.2236 -8.01437 38.7683
rtibia 56.0303
rfoot -25.6362 -16.3458
rtoes -25.2891
lfemur -58.1679 -5.16704 -2.47591
ltibia 63.6961
lfoot -8.34116 -11.8206
ltoes -20.8637
62
root -10.0383 15.8289 8.82526 -171.087 -1.05957 -186.53
lowerback 15.7672 1.0768 -1.93237
upperback 0.846024 0.779678 -1.29139
thorax -7.96149 0.339593 -0.448993
lowerneck -11.4796 -11.3537 -10.9783
upperneck 3.40131 -14.5252 11.3921
head 4.50814 -6.89049 4.01381
rclavicle 5.76476e-015 1.98785e-015
rhumerus -47.5467 6.22155 -87.8886
rradius 98.9167
rwrist -8.79084
rhand -27.16 13.2247
rfingers 7.12502
rthumb -0.574637 -16.7543
lclavicle 5.76476e-015 1.98785e-015
lhumerus -63.699 -7.87361 92.5425
lradius 103.262
lwrist 15.7153
lhand -15.9535 -12.3394
lfingers 7.12502
lthumb 10.245 17.3911
rfemur -18.3904 -7.78452 38.3265
rtibia 56.3596
rfoot -23.7243 -14.6268
rtoes -27.0827
lfemur -57.6844 -6.5494 -1.18609
ltibia 58.3769
lfoot -6.48635 -12.4556
ltoes -23.0616
63
root -9.97508 15.8633 8.30131 -171.205 0.121771 -186.452
lowerback 15.346 1.41945 -1.83783
upperback 0.843871 1.24852 -1.48416
thorax -7.72533 0.559463 -0.803593
lowerneck -11.249 -11.5724 -11.218
upperneck 3.62816 -14.849 11.6513
head 4.61591 -7.04197 4.09361
rclavicle 4.37326e-015 3.97569e-016
rhumerus -47.2901 6.67693 -87.977
rradius 100.843
rwrist -8.66152
rhand -26.9404 13.5699
rfingers 7.12502
rthumb -0.362511 -16.4095
lclavicle 4.37326e-015 3.97569e-016
lhumerus -64.8031 -7.90376 92.8179
lradius 104.796
lwrist 15.6019
lhand -15.3278 -12.2775
lfingers 7.12502
lthumb 10.8486 17.4223
rfemur -16.8625 -7.6249 37.7848
rtibia 57.1406
rfoot -21.6441 -12.7723
rtoes -27.8053
lfemur -56.9508 -8.09061 0.400244
ltibia 53.3974
lfoot -4.78185 -12.2981
ltoes -25.0553
64
root -9.91572 15.888 7.77539 -171.327 1.44369 -186.386
lowerback 14.8993 1.50954 -1.81746
upperback 0.82237 1.76045 -1.67217
thorax -7.48801 0.967771 -1.13434
lowerneck -11.1118 -11.7208 -11.3794
upperneck 3.94099 -15.075 11.7735
head 4.7378 -7.14548 4.12572
rclavicle -1.33186e-014 -1.19271e-014
rhumerus -47.0241 7.12134 -88.1495
rradius 102.506
rwrist -8.73881
rhand -26.7894 13.8203
rfingers 7.12502
rthumb -0.216686 -16.1593
lclavicle -1.33186e-014 -1.19271e-014
lhumerus -65.8231 -7.70407 93.0718
lradius 106.222
lwrist 15.4103
lhand -14.7659 -12.211
lfingers 7.12502
lthumb 11.3905 17.4596
rfemur -15.6642 -7.53831 37.1382
rtibia 58.378
rfoot -19.5572 -11.0496
rtoes -27.7675
lfemur -56.0448 -9.66834 2.14269
ltibia 48.979
lfoot -3.32448 -11.4079
ltoes -26.7891
